<svg width="245" height="38" viewBox="0 0 245 38" fill="none" xmlns="http://www.w3.org/2000/svg">
<path d="M7.4834 26.3276L8.58203 24.6064L9.69287 22.9341C9.44059 22.8527 9.15576 22.7428 8.83838 22.6045L7.4834 26.3276ZM1.86816 12.3262C1.86816 12.9691 1.96175 13.6364 2.14893 14.3281C2.32796 15.0199 2.61686 15.7116 3.01562 16.4033C3.41439 17.0951 3.93115 17.7786 4.56592 18.4541C5.20882 19.1296 5.98193 19.7725 6.88525 20.3828L8.59424 15.5366C8.97673 14.438 9.26562 13.5754 9.46094 12.9487C9.70508 12.1919 9.82715 11.4757 9.82715 10.8003C9.82715 10.1248 9.7417 9.54704 9.5708 9.06689C9.40804 8.57861 9.18424 8.17985 8.89941 7.87061C8.61458 7.55322 8.28499 7.32129 7.91064 7.1748C7.54443 7.02832 7.15381 6.95508 6.73877 6.95508C6.17725 6.95508 5.60758 7.08122 5.02979 7.3335C4.46012 7.58577 3.93929 7.94792 3.46729 8.41992C2.99528 8.88379 2.61279 9.44938 2.31982 10.1167C2.01872 10.7759 1.86816 11.5124 1.86816 12.3262ZM9.16797 21.689C9.32259 21.7703 9.49349 21.8558 9.68066 21.9453L10.2178 22.1772L12.4395 19.0278L14.5635 16.1592L16.4922 13.6445L18.1157 11.5449L19.3486 9.93359C19.6904 9.486 19.9386 9.13607 20.0933 8.88379L20.1909 8.7373L20.4229 8.39551L20.7036 8.00488C20.7931 7.88281 20.8623 7.79736 20.9111 7.74854L21.1187 7.52881C21.2244 7.57764 21.3058 7.63867 21.3628 7.71191C21.4279 7.78516 21.4727 7.8584 21.4971 7.93164C21.5296 8.00488 21.55 8.07812 21.5581 8.15137C21.5662 8.21647 21.5703 8.27344 21.5703 8.32227L21.6069 8.94482C21.6232 9.22965 21.6354 9.53076 21.6436 9.84814C21.6598 10.1655 21.668 10.4992 21.668 10.8491C21.668 11.9966 21.6354 13.1888 21.5703 14.4258C21.5052 15.6546 21.4198 16.8916 21.314 18.1367C21.2163 19.3818 21.1064 20.6188 20.9844 21.8477L20.606 25.3877L21.5459 23.2393L22.6689 20.8467L23.9141 18.2832L25.208 15.7075L26.4775 13.2051L27.6616 10.8857L28.6992 8.88379L29.5171 7.28467C29.6799 6.96729 29.8385 6.71501 29.9932 6.52783C30.1559 6.33252 30.3268 6.18197 30.5059 6.07617C30.693 5.96224 30.8883 5.88493 31.0918 5.84424C31.3034 5.80355 31.5353 5.7832 31.7876 5.7832C32.0643 5.7832 32.3084 5.8361 32.52 5.94189C32.7316 6.03955 32.9106 6.16976 33.0571 6.33252C33.2036 6.48714 33.3135 6.66618 33.3867 6.86963C33.46 7.06494 33.4966 7.26025 33.4966 7.45557C33.4966 7.62646 33.4681 7.79329 33.4111 7.95605C33.3623 8.11068 33.2809 8.24902 33.167 8.37109C33.0531 8.49316 32.9106 8.59082 32.7397 8.66406C32.5688 8.7373 32.3695 8.77393 32.1416 8.77393C31.8649 8.77393 31.5638 8.90413 31.2383 9.16455C30.9128 9.42497 30.571 9.76676 30.2129 10.1899C29.863 10.605 29.509 11.0811 29.1509 11.6182L28.1011 13.2783L27.1367 14.9019L26.3311 16.3057L24.793 19.4795L23.1572 22.9219L21.3994 26.7061L19.5562 30.8931C19.4259 31.186 19.2673 31.4383 19.0801 31.6499C18.901 31.8615 18.7098 31.9754 18.5063 31.9917C18.2948 31.9917 18.1279 31.9266 18.0059 31.7964C17.8919 31.6743 17.8065 31.4953 17.7495 31.2593C17.6925 31.0314 17.6559 30.7547 17.6396 30.4292C17.6315 30.1118 17.6274 29.7578 17.6274 29.3672C17.6274 28.5697 17.6478 27.7152 17.6885 26.8037C17.7292 25.8841 17.7861 24.9482 17.8594 23.9961C17.9326 23.0439 18.014 22.0959 18.1035 21.1519C18.193 20.2078 18.2826 19.3045 18.3721 18.4419C18.4697 17.5711 18.5633 16.7614 18.6528 16.0127C18.7424 15.264 18.8237 14.613 18.897 14.0596L19.0801 12.7656C19.1208 12.4808 19.1452 12.3262 19.1533 12.3018L16.6631 15.6587L15.4912 17.2456L14.1851 18.9912L12.8301 20.8223L11.4751 22.6655C12.1668 22.9178 12.8789 23.1497 13.6113 23.3613C14.3519 23.5729 15.1535 23.7682 16.0161 23.9473L15.8696 24.2646C14.9582 24.1751 14.0996 24.0531 13.2939 23.8984C12.4883 23.7438 11.7152 23.5607 10.9746 23.3491L6.66553 29.123L6.01855 30.002C5.79069 30.3275 5.55469 30.6326 5.31055 30.9175C5.07454 31.2104 4.83854 31.4546 4.60254 31.6499C4.36654 31.8452 4.14681 31.9429 3.94336 31.9429C3.87826 31.9429 3.79688 31.9266 3.69922 31.894C3.60156 31.8696 3.50798 31.8289 3.41846 31.772C3.32894 31.715 3.25163 31.6499 3.18652 31.5767C3.12142 31.5034 3.08887 31.422 3.08887 31.3325C3.08887 31.3081 3.17025 31.0599 3.33301 30.5879L4.0166 28.6104L5.09082 25.5098L6.50684 21.457C5.46517 20.8385 4.56999 20.159 3.82129 19.4185C3.07259 18.6779 2.45817 17.9089 1.97803 17.1113C1.49788 16.3138 1.14388 15.5081 0.916016 14.6943C0.688151 13.8724 0.574219 13.0749 0.574219 12.3018C0.574219 11.2845 0.7736 10.3893 1.17236 9.61621C1.57113 8.8431 2.09196 8.19613 2.73486 7.67529C3.36963 7.15446 4.08984 6.75977 4.89551 6.49121C5.69303 6.23079 6.49463 6.10059 7.30029 6.10059C7.99202 6.10059 8.65527 6.19824 9.29004 6.39355C9.93294 6.58887 10.4985 6.88184 10.9868 7.27246C11.4832 7.66309 11.8779 8.15137 12.1709 8.7373C12.4639 9.32324 12.6104 10.0109 12.6104 10.8003C12.6104 11.2886 12.5534 11.8094 12.4395 12.3628C12.3418 12.8918 12.1709 13.4858 11.9268 14.145L9.16797 21.689ZM37.2319 18.0757C37.6958 18.0757 38.1068 18.1693 38.4648 18.3564C38.8311 18.5436 39.1362 18.8 39.3804 19.1255C39.6326 19.4429 39.8239 19.8172 39.9541 20.2485C40.0843 20.6799 40.1494 21.1396 40.1494 21.6279C40.1494 21.9128 40.1169 22.2261 40.0518 22.5679C39.9867 22.9097 39.8931 23.2637 39.771 23.6299C39.6489 23.988 39.4984 24.346 39.3193 24.7041C39.1484 25.0622 38.9572 25.3918 38.7456 25.6929C38.9002 25.6115 39.0874 25.5098 39.3071 25.3877C39.5269 25.2656 39.7588 25.1354 40.0029 24.9971C40.2552 24.8506 40.5156 24.7 40.7842 24.5454C41.0609 24.3908 41.3294 24.2402 41.5898 24.0938L43.4819 22.9829C43.5389 22.9504 43.6162 22.9341 43.7139 22.9341C43.901 22.9341 43.9946 23.0317 43.9946 23.2271C43.9946 23.4956 43.8237 23.752 43.4819 23.9961C43.189 24.1914 42.8065 24.4355 42.3345 24.7285C41.8625 25.0215 41.3498 25.3104 40.7964 25.5952C40.2511 25.8719 39.6937 26.1201 39.124 26.3398C38.5625 26.5514 38.0376 26.6735 37.5493 26.7061C36.9146 27.1781 36.1699 27.5605 35.3154 27.8535C34.4609 28.1383 33.464 28.2808 32.3247 28.2808C31.7632 28.2808 31.2871 28.2319 30.8965 28.1343C30.514 28.0366 30.2048 27.8942 29.9688 27.707C29.7327 27.5199 29.5618 27.292 29.4561 27.0234C29.3503 26.7467 29.2974 26.4294 29.2974 26.0713C29.2974 25.5505 29.4032 24.993 29.6147 24.3989C29.8263 23.8049 30.0868 23.2271 30.396 22.6655C30.7134 22.0959 31.0511 21.5669 31.4092 21.0786C31.7673 20.5903 32.0928 20.1875 32.3857 19.8701C32.1253 20.098 31.755 20.3706 31.2749 20.688C30.8029 21.0054 30.2658 21.3472 29.6636 21.7134C29.0695 22.0715 28.4347 22.4458 27.7593 22.8364C27.092 23.2271 26.4287 23.6136 25.7695 23.9961C25.6719 24.0368 25.5824 24.0571 25.501 24.0571C25.3952 24.0571 25.3138 24.0286 25.2568 23.9717C25.1999 23.9066 25.1714 23.8252 25.1714 23.7275C25.1714 23.6136 25.2202 23.4956 25.3179 23.3735C25.4074 23.2433 25.5579 23.1131 25.7695 22.9829C27.0065 22.2586 28.0604 21.6361 28.9312 21.1152C29.8019 20.5863 30.5547 20.1387 31.1895 19.7725C31.8242 19.4062 32.3776 19.1133 32.8496 18.8936C33.3216 18.6738 33.7733 18.5029 34.2046 18.3809C34.644 18.2588 35.0998 18.1774 35.5718 18.1367C36.0438 18.096 36.5972 18.0757 37.2319 18.0757ZM32.3491 27.231C32.8618 27.231 33.3623 27.1252 33.8506 26.9136C34.3389 26.702 34.8149 26.4131 35.2788 26.0469C35.173 25.9248 35.0998 25.7865 35.0591 25.6318C35.0184 25.4772 34.998 25.3185 34.998 25.1558C34.998 24.8709 35.0916 24.6593 35.2788 24.521C35.466 24.3745 35.6898 24.3013 35.9502 24.3013C36.2269 24.3013 36.4954 24.3826 36.7559 24.5454C37.0163 24.3582 37.2645 24.1344 37.5005 23.874C37.7365 23.6136 37.9399 23.3369 38.1108 23.0439C38.2899 22.751 38.4282 22.4499 38.5259 22.1406C38.6317 21.8314 38.6846 21.5303 38.6846 21.2373C38.6846 20.985 38.6357 20.745 38.5381 20.5171C38.4486 20.2811 38.298 20.0776 38.0864 19.9067C37.883 19.7358 37.6104 19.6016 37.2686 19.5039C36.9349 19.3981 36.528 19.3452 36.0479 19.3452C35.6491 19.3452 35.2503 19.451 34.8516 19.6626C34.4609 19.8742 34.0825 20.159 33.7163 20.5171C33.3582 20.867 33.0205 21.2699 32.7031 21.7256C32.3939 22.1732 32.1253 22.637 31.8975 23.1172C31.6696 23.5973 31.4906 24.0693 31.3604 24.5332C31.2301 24.9971 31.165 25.4202 31.165 25.8027C31.165 26.2259 31.2586 26.5718 31.4458 26.8403C31.633 27.1007 31.9341 27.231 32.3491 27.231ZM57.1782 19.1987C57.1782 19.4022 57.1416 19.6423 57.0684 19.9189C56.9951 20.1875 56.9015 20.4764 56.7876 20.7856C56.6737 21.0868 56.5516 21.396 56.4214 21.7134C56.2912 22.0308 56.1691 22.34 56.0552 22.6411C55.9412 22.9341 55.8477 23.2108 55.7744 23.4712C55.7012 23.7316 55.6646 23.9513 55.6646 24.1304C55.6646 24.285 55.6971 24.4071 55.7622 24.4966C55.8354 24.5861 55.9494 24.6309 56.104 24.6309C56.2179 24.6309 56.3766 24.5902 56.5801 24.5088C56.7917 24.4193 57.0358 24.3013 57.3125 24.1548C57.5973 24.0002 57.9066 23.8252 58.2402 23.6299C58.582 23.4264 58.9401 23.2108 59.3145 22.9829C59.3958 22.9341 59.4772 22.9097 59.5586 22.9097C59.6481 22.9097 59.7254 22.9422 59.7905 23.0073C59.8638 23.0724 59.9004 23.1538 59.9004 23.2515C59.9004 23.3573 59.8556 23.4712 59.7661 23.5933C59.6766 23.7072 59.526 23.8415 59.3145 23.9961C58.2565 24.7855 57.2881 25.3958 56.4092 25.8271C55.5384 26.2585 54.8426 26.4741 54.3218 26.4741C53.8986 26.4741 53.5649 26.409 53.3208 26.2788C53.0767 26.1486 52.9546 25.9451 52.9546 25.6685C52.9546 25.408 53.0645 25.0785 53.2842 24.6797C53.512 24.2809 53.8823 23.8089 54.395 23.2637C54.5903 22.9382 54.745 22.5841 54.8589 22.2017C54.9728 21.811 55.0542 21.4326 55.103 21.0664C55.16 20.6921 55.1966 20.3503 55.2129 20.041C55.2292 19.7236 55.2373 19.4714 55.2373 19.2842C55.2373 18.9749 55.1844 18.7389 55.0786 18.5762C54.981 18.4053 54.8141 18.3198 54.5781 18.3198C54.3177 18.3198 54.0614 18.4378 53.8091 18.6738C53.5649 18.9017 53.3167 19.2191 53.0645 19.626C52.8203 20.0329 52.5762 20.513 52.332 21.0664C52.0879 21.6198 51.8356 22.2179 51.5752 22.8608C51.3229 23.5037 51.0625 24.1751 50.7939 24.875C50.5254 25.5749 50.2446 26.2788 49.9517 26.9868C49.9028 27.1252 49.8418 27.2676 49.7686 27.4141C49.6953 27.5605 49.6099 27.6989 49.5122 27.8291C49.4227 27.9512 49.3169 28.0529 49.1948 28.1343C49.0809 28.2157 48.9588 28.2563 48.8286 28.2563C48.5194 28.2563 48.2874 28.1872 48.1328 28.0488C47.9782 27.9105 47.9009 27.6826 47.9009 27.3652C47.9009 27.2757 47.9049 27.1821 47.9131 27.0845C47.9294 26.9868 47.9701 26.8729 48.0352 26.7427L50.3911 22.0186C50.7004 21.221 51.0299 20.5618 51.3799 20.041C51.738 19.5202 52.0594 19.1011 52.3442 18.7837C51.6769 19.1825 51.0096 19.5812 50.3423 19.98C49.675 20.3787 49.0321 20.7653 48.4136 21.1396C47.7951 21.5059 47.2091 21.8558 46.6558 22.1895C46.1105 22.515 45.6222 22.8039 45.1909 23.0562C44.7596 23.3084 44.3975 23.516 44.1045 23.6787C43.8115 23.8415 43.6081 23.9473 43.4941 23.9961C43.429 24.0368 43.3599 24.0571 43.2866 24.0571C43.1971 24.0571 43.1239 24.0246 43.0669 23.9595C43.0018 23.8944 42.9692 23.8089 42.9692 23.7031C42.9692 23.5892 43.0099 23.4671 43.0913 23.3369C43.1646 23.1986 43.2988 23.0724 43.4941 22.9585L46.7534 21.0542C47.1766 20.8019 47.6038 20.5496 48.0352 20.2974C48.4665 20.0369 48.8693 19.7969 49.2437 19.5771C49.6261 19.3574 49.9639 19.1621 50.2568 18.9912C50.5498 18.8203 50.7736 18.6901 50.9282 18.6006C51.3188 18.3727 51.6973 18.1774 52.0635 18.0146C52.4378 17.8519 52.8081 17.7176 53.1743 17.6118C53.5405 17.506 53.9108 17.4246 54.2852 17.3677C54.6676 17.3107 55.0664 17.27 55.4814 17.2456C55.6605 17.2456 55.8477 17.3026 56.043 17.4165C56.2464 17.5223 56.4295 17.6688 56.5923 17.856C56.7632 18.035 56.9015 18.2425 57.0073 18.4785C57.1213 18.7064 57.1782 18.9465 57.1782 19.1987ZM66.3701 18.8447C66.8991 18.5192 67.4321 18.1367 67.9692 17.6973C68.5063 17.2578 69.0231 16.7939 69.5195 16.3057C70.016 15.8092 70.4798 15.3047 70.9111 14.792C71.3424 14.2793 71.7168 13.7869 72.0342 13.3149C72.3516 12.8429 72.5998 12.4076 72.7788 12.0088C72.966 11.6019 73.0596 11.2642 73.0596 10.9956C73.0596 10.8003 73.0026 10.6457 72.8887 10.5317C72.7829 10.4178 72.6079 10.3608 72.3638 10.3608C71.5093 10.3608 70.7646 10.5765 70.1299 11.0078C69.4951 11.4391 68.9417 12.0373 68.4697 12.8022C67.9977 13.5591 67.5908 14.4543 67.249 15.4878C66.9154 16.5213 66.6224 17.6403 66.3701 18.8447ZM73.9385 18.7715C73.9385 18.5518 73.7879 18.4419 73.4868 18.4419C73.1938 18.4419 72.7869 18.568 72.2661 18.8203C71.7534 19.0726 71.1838 19.4185 70.5571 19.8579C69.9386 20.2892 69.2998 20.7979 68.6406 21.3838C67.9814 21.9697 67.363 22.5964 66.7852 23.2637C66.2074 23.931 65.7028 24.6268 65.2715 25.3511C64.8402 26.0672 64.5472 26.7793 64.3926 27.4873C64.3682 27.6094 64.2909 27.7233 64.1606 27.8291C64.0386 27.9268 63.8921 28.0081 63.7212 28.0732C63.5584 28.1465 63.3835 28.1953 63.1963 28.2197C63.0173 28.2523 62.8545 28.2482 62.708 28.2075C62.5697 28.175 62.4557 28.1099 62.3662 28.0122C62.2848 27.9146 62.2645 27.7721 62.3052 27.585C62.3133 27.585 62.3581 27.3734 62.4395 26.9502C62.5046 26.5758 62.647 25.9167 62.8667 24.9727L63.6968 21.396L59.3145 23.9961C59.2331 24.0531 59.1395 24.0815 59.0337 24.0815C58.936 24.0815 58.8587 24.0531 58.8018 23.9961C58.7367 23.931 58.7041 23.8496 58.7041 23.752C58.7041 23.638 58.7529 23.516 58.8506 23.3857C58.9401 23.2474 59.0947 23.1131 59.3145 22.9829L63.77 20.3584C64.2176 18.7389 64.6774 17.27 65.1494 15.9517C65.6296 14.6333 66.1911 13.5103 66.834 12.5825C67.485 11.6466 68.2581 10.9264 69.1533 10.4219C70.0566 9.91732 71.1553 9.66504 72.4492 9.66504C73.2061 9.66504 73.7472 9.78304 74.0728 10.019C74.4064 10.255 74.5732 10.5724 74.5732 10.9712C74.5732 11.3455 74.4471 11.7769 74.1948 12.2651C73.9507 12.7534 73.617 13.2702 73.1938 13.8154C72.7707 14.3525 72.2824 14.9059 71.729 15.4756C71.1756 16.0452 70.5938 16.5986 69.9834 17.1357C69.373 17.6729 68.7505 18.1774 68.1157 18.6494C67.4891 19.1214 66.891 19.5324 66.3213 19.8823L65.0273 25.2534C65.2064 24.521 65.4668 23.8333 65.8086 23.1904C66.1667 22.5394 66.5776 21.9412 67.0415 21.396C67.5135 20.8426 68.0221 20.3462 68.5674 19.9067C69.1126 19.4673 69.6619 19.097 70.2153 18.7959C70.7769 18.4867 71.3262 18.2507 71.8633 18.0879C72.4004 17.9251 72.8968 17.8438 73.3525 17.8438C73.6455 17.8438 73.91 17.8844 74.146 17.9658C74.3901 18.0391 74.5977 18.1571 74.7686 18.3198C74.9395 18.4744 75.0737 18.6738 75.1714 18.918C75.269 19.1621 75.3179 19.4551 75.3179 19.7969C75.3179 19.9922 75.1958 20.2078 74.9517 20.4438C74.7157 20.6799 74.4146 20.9159 74.0483 21.1519C73.6821 21.3879 73.2834 21.6157 72.8521 21.8354C72.4207 22.0552 72.0179 22.2505 71.6436 22.4214C71.9528 22.6574 72.1725 22.9015 72.3027 23.1538C72.4411 23.4061 72.5103 23.6787 72.5103 23.9717C72.5103 24.3623 72.3394 24.7855 71.9976 25.2412C71.6558 25.6888 71.2122 26.1649 70.667 26.6694L71.2773 26.3154L72.1562 25.8149L73.1816 25.2168L74.2681 24.582L76.9658 22.9829C77.0228 22.9504 77.0838 22.9341 77.1489 22.9341C77.2384 22.9341 77.3198 22.9666 77.3931 23.0317C77.4663 23.0968 77.5029 23.1864 77.5029 23.3003C77.5029 23.3979 77.4622 23.5119 77.3809 23.6421C77.2995 23.7642 77.1611 23.8822 76.9658 23.9961L73.6333 25.9858L72.3516 26.7549L71.1675 27.4629L70.2275 28C69.9671 28.1546 69.7881 28.2563 69.6904 28.3052C69.609 28.3459 69.5277 28.3784 69.4463 28.4028C69.373 28.4354 69.3039 28.4476 69.2388 28.4395C68.7505 28.4395 68.3924 28.3377 68.1646 28.1343C67.9448 27.9308 67.835 27.6908 67.835 27.4141C67.835 27.2513 67.9082 27.0967 68.0547 26.9502C68.2012 26.7956 68.4453 26.645 68.7871 26.4985L69.5928 25.7539C69.8369 25.5179 70.0444 25.3063 70.2153 25.1191C70.3944 24.932 70.5327 24.7692 70.6304 24.6309C70.7362 24.4925 70.7891 24.3786 70.7891 24.2891C70.7891 24.0205 70.7321 23.8333 70.6182 23.7275C70.5042 23.6217 70.374 23.5363 70.2275 23.4712C70.0892 23.4061 69.9631 23.3328 69.8491 23.2515C69.7352 23.1701 69.6782 23.0236 69.6782 22.812C69.6782 22.6737 69.784 22.515 69.9956 22.3359C70.2072 22.1488 70.4717 21.9494 70.7891 21.7378L71.8145 21.0664C72.1807 20.8223 72.5184 20.5741 72.8276 20.3218C73.145 20.0695 73.4095 19.8132 73.6211 19.5527C73.8327 19.2923 73.9385 19.0319 73.9385 18.7715ZM85.1689 20.2241C85.1689 20.5659 85.1934 20.8182 85.2422 20.981C85.291 21.1437 85.3439 21.2902 85.4009 21.4204C85.466 21.5425 85.5229 21.6808 85.5718 21.8354C85.6287 21.9819 85.6572 22.2139 85.6572 22.5312C85.6572 22.751 85.6328 22.9992 85.584 23.2759C85.5433 23.5444 85.4619 23.8252 85.3398 24.1182C85.2178 24.403 85.0469 24.6878 84.8271 24.9727C84.6074 25.2493 84.3267 25.4976 83.9849 25.7173L88.77 22.9829C88.827 22.9504 88.884 22.9341 88.9409 22.9341C89.0304 22.9341 89.1077 22.9707 89.1729 23.0439C89.2461 23.109 89.2827 23.1986 89.2827 23.3125C89.2827 23.402 89.242 23.5119 89.1606 23.6421C89.0874 23.7723 88.9572 23.8903 88.77 23.9961C87.769 24.5658 86.9064 25.0622 86.1821 25.4854C85.466 25.9004 84.8516 26.2585 84.3389 26.5596C83.8343 26.8607 83.4193 27.113 83.0938 27.3164C82.7682 27.5117 82.4956 27.6745 82.2759 27.8047C81.8853 28.0407 81.515 28.1994 81.165 28.2808C80.8151 28.3621 80.4692 28.4028 80.1274 28.4028C79.867 28.4028 79.6758 28.3581 79.5537 28.2686C79.4398 28.179 79.3828 28.0814 79.3828 27.9756C79.391 27.8617 79.4561 27.7599 79.5781 27.6704C79.7002 27.5728 79.8752 27.5239 80.103 27.5239C80.5018 27.5239 80.8883 27.3896 81.2627 27.1211C81.637 26.8444 81.9666 26.4741 82.2515 26.0103C82.5444 25.5382 82.7764 24.9889 82.9473 24.3623C83.1263 23.7357 83.2158 23.0724 83.2158 22.3726C83.2158 22.2668 83.2362 22.0633 83.2769 21.7622C83.3257 21.4611 83.3989 21.1356 83.4966 20.7856C83.5942 20.4357 83.7204 20.0939 83.875 19.7603C84.0378 19.4266 84.229 19.1743 84.4487 19.0034L76.9658 23.9961C76.8844 24.0531 76.799 24.0815 76.7095 24.0815C76.62 24.0815 76.5467 24.049 76.4897 23.9839C76.4328 23.9188 76.4043 23.8374 76.4043 23.7397C76.4043 23.6258 76.4491 23.4997 76.5386 23.3613C76.62 23.223 76.7624 23.0968 76.9658 22.9829C78.276 22.0959 79.3747 21.3594 80.2617 20.7734C81.1569 20.1794 81.8853 19.6992 82.4468 19.333L84.1558 18.1733C84.408 18.0675 84.6725 17.9862 84.9492 17.9292C85.2259 17.8641 85.4823 17.8315 85.7183 17.8315C85.9787 17.8315 86.1903 17.8763 86.353 17.9658C86.5239 18.0472 86.6094 18.1815 86.6094 18.3687C86.6094 18.4338 86.5321 18.5396 86.3774 18.686C86.231 18.8325 86.0682 18.9993 85.8892 19.1865C85.7101 19.3656 85.5433 19.5487 85.3887 19.7358C85.2422 19.923 85.1689 20.0858 85.1689 20.2241ZM91.3091 26.3398C91.3091 26.0632 91.3213 25.762 91.3457 25.4365C91.3783 25.1029 91.4149 24.757 91.4556 24.3989C91.5044 24.0327 91.5614 23.6665 91.6265 23.3003C91.6916 22.9259 91.7607 22.5597 91.834 22.2017L88.7822 23.9961C88.7008 24.0531 88.6113 24.0815 88.5137 24.0815C88.416 24.0815 88.3346 24.049 88.2695 23.9839C88.1963 23.9188 88.1597 23.8374 88.1597 23.7397C88.1597 23.6258 88.2085 23.5078 88.3062 23.3857C88.3957 23.2555 88.5544 23.1213 88.7822 22.9829L91.9561 20.9932C92.0863 20.6188 92.2734 20.1143 92.5176 19.4795C92.7617 18.8447 93.0628 18.1408 93.4209 17.3677C93.779 16.5946 94.194 15.7767 94.666 14.9141C95.138 14.0514 95.6711 13.1969 96.2651 12.3506C96.8592 11.5042 97.5103 10.6986 98.2183 9.93359C98.9263 9.16048 99.6912 8.48096 100.513 7.89502C101.343 7.30908 102.23 6.84521 103.174 6.50342C104.126 6.15348 105.14 5.97852 106.214 5.97852C107.125 5.97852 107.919 6.04362 108.594 6.17383C109.27 6.2959 109.827 6.47087 110.267 6.69873C110.706 6.9266 111.032 7.19515 111.243 7.50439C111.463 7.8055 111.573 8.13509 111.573 8.49316C111.573 9.05469 111.329 9.64469 110.84 10.2632C110.36 10.8735 109.64 11.4717 108.68 12.0576L94.7881 20.6147L94.0557 25.3145C94.4707 25.0622 94.8857 24.8099 95.3008 24.5576C95.7158 24.2972 96.1064 24.049 96.4727 23.813C96.847 23.577 97.1847 23.3613 97.4858 23.166C97.7951 22.9626 98.0433 22.7917 98.2305 22.6533C98.32 22.5719 98.438 22.4784 98.5845 22.3726C98.7391 22.2668 98.91 22.1691 99.0972 22.0796C99.2925 21.9901 99.5 21.9128 99.7197 21.8477C99.9395 21.7826 100.167 21.75 100.403 21.75C100.574 21.75 100.745 21.7703 100.916 21.811C101.087 21.8436 101.237 21.925 101.368 22.0552C101.506 22.1854 101.616 22.3726 101.697 22.6167C101.787 22.8608 101.832 23.1904 101.832 23.6055V26.7549C101.913 26.7061 102.063 26.6165 102.283 26.4863C102.511 26.348 102.784 26.1852 103.101 25.998C103.418 25.8109 103.764 25.6074 104.139 25.3877C104.521 25.168 104.904 24.9482 105.286 24.7285L108.24 22.9829C108.411 22.8853 108.558 22.8364 108.68 22.8364C108.867 22.8364 108.96 22.93 108.96 23.1172C108.96 23.2474 108.903 23.3898 108.79 23.5444C108.684 23.6909 108.501 23.8415 108.24 23.9961C107.345 24.5251 106.486 25.0296 105.665 25.5098C104.851 25.9899 104.11 26.4172 103.443 26.7915C102.784 27.1659 102.222 27.471 101.758 27.707C101.294 27.9349 100.969 28.0651 100.782 28.0977C100.692 28.1139 100.599 28.1261 100.501 28.1343C100.403 28.1424 100.306 28.1465 100.208 28.1465C99.915 28.1465 99.675 28.1058 99.4878 28.0244C99.3088 27.9512 99.1663 27.8494 99.0605 27.7192C98.9629 27.5809 98.8937 27.4263 98.853 27.2554C98.8205 27.0845 98.8042 26.9014 98.8042 26.7061C98.8042 26.5189 98.8368 26.3236 98.9019 26.1201C98.9751 25.9085 99.028 25.6766 99.0605 25.4243L99.4023 22.751C98.1735 23.6136 97.0505 24.3786 96.0332 25.0459C95.6751 25.3307 95.3211 25.6034 94.9712 25.8638C94.6213 26.1242 94.2998 26.3561 94.0068 26.5596C93.722 26.763 93.4738 26.9258 93.2622 27.0479C93.0506 27.1618 92.9082 27.2188 92.835 27.2188C92.6803 27.2188 92.5135 27.2106 92.3345 27.1943C92.1554 27.1781 91.9886 27.1414 91.834 27.0845C91.6875 27.0194 91.5614 26.9299 91.4556 26.8159C91.3579 26.6938 91.3091 26.5352 91.3091 26.3398ZM95.0078 19.0522C96.0332 18.3605 97.0993 17.6484 98.2061 16.916C99.3128 16.1755 100.432 15.443 101.563 14.7188C102.702 13.9945 103.833 13.2865 104.957 12.5947C106.088 11.8949 107.186 11.2397 108.252 10.6294C108.871 10.1655 109.347 9.73421 109.681 9.33545C110.014 8.93669 110.181 8.57861 110.181 8.26123C110.181 7.85433 109.872 7.53288 109.253 7.29688C108.635 7.05273 107.654 6.93066 106.312 6.93066C105.685 6.93066 105.058 7.05273 104.432 7.29688C103.805 7.53288 103.187 7.8584 102.576 8.27344C101.974 8.68848 101.388 9.17676 100.818 9.73828C100.249 10.2917 99.7075 10.8857 99.1948 11.5205C98.6821 12.1553 98.202 12.8145 97.7544 13.498C97.3068 14.1735 96.8999 14.8408 96.5337 15.5C96.1756 16.1592 95.8664 16.7939 95.606 17.4043C95.3455 18.0146 95.1462 18.564 95.0078 19.0522ZM119.703 18.0757C120.167 18.0757 120.577 18.1693 120.936 18.3564C121.302 18.5436 121.607 18.8 121.851 19.1255C122.103 19.4429 122.295 19.8172 122.425 20.2485C122.555 20.6799 122.62 21.1396 122.62 21.6279C122.62 21.9128 122.588 22.2261 122.522 22.5679C122.457 22.9097 122.364 23.2637 122.242 23.6299C122.12 23.988 121.969 24.346 121.79 24.7041C121.619 25.0622 121.428 25.3918 121.216 25.6929C121.371 25.6115 121.558 25.5098 121.778 25.3877C121.998 25.2656 122.229 25.1354 122.474 24.9971C122.726 24.8506 122.986 24.7 123.255 24.5454C123.532 24.3908 123.8 24.2402 124.061 24.0938L125.953 22.9829C126.01 22.9504 126.087 22.9341 126.185 22.9341C126.372 22.9341 126.465 23.0317 126.465 23.2271C126.465 23.4956 126.294 23.752 125.953 23.9961C125.66 24.1914 125.277 24.4355 124.805 24.7285C124.333 25.0215 123.82 25.3104 123.267 25.5952C122.722 25.8719 122.164 26.1201 121.595 26.3398C121.033 26.5514 120.508 26.6735 120.02 26.7061C119.385 27.1781 118.641 27.5605 117.786 27.8535C116.932 28.1383 115.935 28.2808 114.795 28.2808C114.234 28.2808 113.758 28.2319 113.367 28.1343C112.985 28.0366 112.675 27.8942 112.439 27.707C112.203 27.5199 112.033 27.292 111.927 27.0234C111.821 26.7467 111.768 26.4294 111.768 26.0713C111.768 25.5505 111.874 24.993 112.085 24.3989C112.297 23.8049 112.557 23.2271 112.867 22.6655C113.184 22.0959 113.522 21.5669 113.88 21.0786C114.238 20.5903 114.563 20.1875 114.856 19.8701C114.596 20.098 114.226 20.3706 113.746 20.688C113.274 21.0054 112.736 21.3472 112.134 21.7134C111.54 22.0715 110.905 22.4458 110.23 22.8364C109.563 23.2271 108.899 23.6136 108.24 23.9961C108.143 24.0368 108.053 24.0571 107.972 24.0571C107.866 24.0571 107.785 24.0286 107.728 23.9717C107.671 23.9066 107.642 23.8252 107.642 23.7275C107.642 23.6136 107.691 23.4956 107.789 23.3735C107.878 23.2433 108.029 23.1131 108.24 22.9829C109.477 22.2586 110.531 21.6361 111.402 21.1152C112.273 20.5863 113.025 20.1387 113.66 19.7725C114.295 19.4062 114.848 19.1133 115.32 18.8936C115.792 18.6738 116.244 18.5029 116.675 18.3809C117.115 18.2588 117.57 18.1774 118.042 18.1367C118.514 18.096 119.068 18.0757 119.703 18.0757ZM114.82 27.231C115.333 27.231 115.833 27.1252 116.321 26.9136C116.81 26.702 117.286 26.4131 117.75 26.0469C117.644 25.9248 117.57 25.7865 117.53 25.6318C117.489 25.4772 117.469 25.3185 117.469 25.1558C117.469 24.8709 117.562 24.6593 117.75 24.521C117.937 24.3745 118.16 24.3013 118.421 24.3013C118.698 24.3013 118.966 24.3826 119.227 24.5454C119.487 24.3582 119.735 24.1344 119.971 23.874C120.207 23.6136 120.411 23.3369 120.582 23.0439C120.761 22.751 120.899 22.4499 120.997 22.1406C121.102 21.8314 121.155 21.5303 121.155 21.2373C121.155 20.985 121.106 20.745 121.009 20.5171C120.919 20.2811 120.769 20.0776 120.557 19.9067C120.354 19.7358 120.081 19.6016 119.739 19.5039C119.406 19.3981 118.999 19.3452 118.519 19.3452C118.12 19.3452 117.721 19.451 117.322 19.6626C116.932 19.8742 116.553 20.159 116.187 20.5171C115.829 20.867 115.491 21.2699 115.174 21.7256C114.865 22.1732 114.596 22.637 114.368 23.1172C114.14 23.5973 113.961 24.0693 113.831 24.5332C113.701 24.9971 113.636 25.4202 113.636 25.8027C113.636 26.2259 113.729 26.5718 113.917 26.8403C114.104 27.1007 114.405 27.231 114.82 27.231ZM125.965 22.9829L132.435 18.8569C132.435 18.8569 132.467 18.8122 132.532 18.7227C132.589 18.6413 132.679 18.5396 132.801 18.4175C132.923 18.2954 133.069 18.1611 133.24 18.0146C133.419 17.8682 133.623 17.7339 133.851 17.6118C134.078 17.4897 134.331 17.388 134.607 17.3066C134.892 17.2253 135.201 17.1846 135.535 17.1846C136.007 17.1846 136.508 17.2334 137.037 17.3311C137.574 17.4206 138.066 17.5915 138.514 17.8438C138.961 18.0879 139.332 18.4338 139.625 18.8813C139.926 19.3208 140.076 19.8905 140.076 20.5903C140.076 20.924 139.983 21.3065 139.795 21.7378C139.616 22.161 139.36 22.6004 139.026 23.0562C138.701 23.5119 138.306 23.9717 137.842 24.4355C137.378 24.8994 136.87 25.3389 136.316 25.7539L140.918 22.9829C140.975 22.9585 141.036 22.9463 141.102 22.9463C141.191 22.9463 141.26 22.9788 141.309 23.0439C141.366 23.109 141.395 23.1904 141.395 23.2881C141.395 23.402 141.354 23.5241 141.272 23.6543C141.199 23.7845 141.081 23.8984 140.918 23.9961C139.909 24.5983 139.002 25.1151 138.196 25.5464C137.399 25.9696 136.674 26.3236 136.023 26.6084C135.372 26.8932 134.778 27.1211 134.241 27.292C133.712 27.4548 133.208 27.5809 132.728 27.6704C132.256 27.7518 131.796 27.8047 131.348 27.8291C130.901 27.8535 130.437 27.8657 129.957 27.8657C129.623 28.5981 129.269 29.3265 128.895 30.0508C128.52 30.7832 128.158 31.4912 127.808 32.1748C127.458 32.8665 127.133 33.5257 126.832 34.1523C126.53 34.7871 126.286 35.3771 126.099 35.9224C126.075 35.9956 126.03 36.0973 125.965 36.2275C125.892 36.3577 125.806 36.488 125.708 36.6182C125.611 36.7484 125.509 36.8582 125.403 36.9478C125.289 37.0454 125.18 37.0942 125.074 37.0942C124.935 37.0942 124.793 37.078 124.646 37.0454C124.5 37.0129 124.362 36.964 124.231 36.8989C124.101 36.842 123.995 36.7687 123.914 36.6792C123.833 36.5978 123.792 36.5002 123.792 36.3862C123.792 36.3374 123.796 36.3089 123.804 36.3008C123.894 35.8369 124.073 35.2795 124.341 34.6284C124.602 33.9855 124.923 33.2775 125.306 32.5044C125.68 31.7313 126.091 30.9134 126.539 30.0508C126.994 29.1882 127.454 28.3133 127.918 27.4263C128.382 26.5392 128.829 25.6562 129.261 24.7773C129.7 23.8984 130.095 23.0562 130.445 22.2505C130.494 22.1284 130.559 22.0023 130.64 21.8721C130.73 21.7419 130.819 21.6117 130.909 21.4814C131.006 21.3431 131.104 21.2129 131.202 21.0908C131.299 20.9688 131.385 20.8589 131.458 20.7612C131.32 20.8345 131.071 20.981 130.713 21.2007C130.355 21.4123 129.924 21.6686 129.419 21.9697C128.923 22.2627 128.374 22.5882 127.771 22.9463C127.177 23.2962 126.575 23.6462 125.965 23.9961C125.916 24.0205 125.871 24.0327 125.831 24.0327C125.741 24.0327 125.66 23.9961 125.586 23.9229C125.513 23.8415 125.477 23.7438 125.477 23.6299C125.477 23.5322 125.513 23.4264 125.586 23.3125C125.66 23.1986 125.786 23.0887 125.965 22.9829ZM136.329 18.6006C135.889 18.6006 135.429 18.8203 134.949 19.2598C134.477 19.6992 133.997 20.2933 133.509 21.042C133.021 21.7826 132.532 22.6493 132.044 23.6421C131.556 24.6268 131.08 25.6685 130.616 26.7671C131.096 26.7671 131.604 26.6979 132.142 26.5596C132.687 26.4212 133.228 26.2259 133.765 25.9736C134.302 25.7132 134.815 25.408 135.303 25.0581C135.8 24.7 136.235 24.3053 136.609 23.874C136.992 23.4346 137.293 22.9666 137.513 22.4702C137.741 21.9657 137.854 21.4448 137.854 20.9077C137.854 20.5578 137.826 20.2445 137.769 19.9678C137.712 19.6829 137.623 19.4388 137.5 19.2354C137.378 19.0319 137.22 18.8773 137.024 18.7715C136.837 18.6576 136.605 18.6006 136.329 18.6006ZM143.104 27.5972C143.022 27.5402 142.981 27.4466 142.981 27.3164C142.981 26.999 143.087 26.7996 143.299 26.7183C143.51 26.6369 143.812 26.5962 144.202 26.5962C145.569 26.5962 146.745 26.6003 147.73 26.6084C148.715 26.6084 149.557 26.6165 150.257 26.6328C150.957 26.6491 151.53 26.6613 151.978 26.6694C152.434 26.6776 152.808 26.6898 153.101 26.7061C153.394 26.7223 153.63 26.7386 153.809 26.7549C153.996 26.7712 154.167 26.7874 154.322 26.8037C154.501 26.8363 154.59 26.9543 154.59 27.1577C154.59 27.3286 154.542 27.4914 154.444 27.646C154.354 27.8006 154.236 27.8861 154.09 27.9023C153.903 27.9186 153.654 27.9349 153.345 27.9512C153.036 27.9593 152.69 27.9674 152.308 27.9756C151.933 27.9837 151.53 27.9919 151.099 28C150.676 28 150.253 28 149.83 28C149.317 28 148.82 28 148.34 28C147.86 27.9919 147.437 27.9878 147.071 27.9878H146.473C146.212 27.9878 145.911 27.9837 145.569 27.9756C145.236 27.9674 144.906 27.9512 144.581 27.9268C144.255 27.9023 143.958 27.8657 143.689 27.8169C143.421 27.7599 143.226 27.6867 143.104 27.5972ZM173.438 26.4863C173.438 26.3073 173.381 26.1649 173.267 26.0591C173.161 25.9533 173.039 25.8678 172.901 25.8027C172.771 25.7295 172.649 25.6644 172.535 25.6074C172.429 25.5423 172.376 25.4609 172.376 25.3633C172.376 25.2249 172.437 25.0825 172.559 24.936C172.681 24.7896 172.885 24.6349 173.169 24.4722C173.178 24.4722 173.19 24.464 173.206 24.4478C173.198 24.3338 173.194 24.2199 173.194 24.106C173.194 23.9839 173.194 23.8659 173.194 23.752C173.194 22.1895 173.381 20.5985 173.755 18.979C174.138 17.3514 174.646 15.7319 175.281 14.1206C174.443 14.6984 173.564 15.325 172.645 16.0005C171.725 16.6759 170.793 17.3555 169.849 18.0391C168.905 18.7227 167.961 19.3859 167.017 20.0288C166.073 20.6636 165.158 21.2332 164.271 21.7378C163.725 23.4631 163.147 24.9564 162.537 26.2178C161.927 27.471 161.3 28.5371 160.657 29.416C160.022 30.2949 159.375 31.007 158.716 31.5522C158.065 32.1056 157.426 32.5329 156.8 32.834C156.173 33.1432 155.571 33.3507 154.993 33.4565C154.407 33.5623 153.862 33.6152 153.357 33.6152C152.47 33.6152 151.823 33.4891 151.417 33.2368C151.01 32.9845 150.806 32.6143 150.806 32.126C150.806 31.6051 151.042 30.9744 151.514 30.2339C151.978 29.5015 152.653 28.6917 153.541 27.8047C154.419 26.9095 155.49 25.9574 156.751 24.9482C158.021 23.9391 159.453 22.9056 161.048 21.8477C161.561 20.7165 162.073 19.5243 162.586 18.271C163.107 17.0177 163.607 15.7523 164.087 14.4746C164.568 13.1969 165.023 11.9315 165.455 10.6782C165.894 9.42497 166.293 8.22868 166.651 7.08936C167.009 5.95003 167.318 4.89209 167.579 3.91553C167.847 2.93083 168.051 2.07633 168.189 1.35205C168.246 1.22184 168.319 1.12419 168.409 1.05908C168.498 0.993978 168.592 0.961426 168.689 0.961426C168.844 0.961426 168.958 1.01432 169.031 1.12012C169.104 1.22591 169.141 1.36019 169.141 1.52295V1.6084C168.986 2.27572 168.82 3.03662 168.641 3.89111C168.462 4.74561 168.266 5.66113 168.055 6.6377C167.851 7.60612 167.636 8.62337 167.408 9.68945C167.18 10.7474 166.936 11.8257 166.675 12.9243C166.423 14.0229 166.154 15.1216 165.87 16.2202C165.593 17.3188 165.304 18.3849 165.003 19.4185C165.931 18.9546 166.862 18.4256 167.798 17.8315C168.742 17.2293 169.682 16.6108 170.618 15.9761C171.554 15.3413 172.474 14.7106 173.377 14.084C174.288 13.4574 175.175 12.8796 176.038 12.3506C176.502 11.3415 176.998 10.369 177.527 9.43311C178.064 8.4891 178.614 7.61019 179.175 6.79639C179.737 5.97445 180.302 5.22982 180.872 4.5625C181.45 3.88704 182.011 3.31331 182.557 2.84131C183.11 2.36117 183.635 1.99089 184.131 1.73047C184.636 1.46191 185.1 1.32764 185.523 1.32764C185.848 1.32764 186.121 1.36426 186.341 1.4375C186.569 1.5026 186.752 1.59619 186.89 1.71826C187.028 1.83219 187.126 1.97054 187.183 2.1333C187.24 2.29606 187.269 2.46696 187.269 2.646C187.269 2.96338 187.199 3.30518 187.061 3.67139C186.931 4.0376 186.776 4.38753 186.597 4.72119C186.418 5.04671 186.239 5.33561 186.06 5.58789C185.881 5.83203 185.751 5.99479 185.669 6.07617L185.694 6.02734C185.645 6.04362 185.486 6.14941 185.218 6.34473C184.957 6.5319 184.603 6.79639 184.156 7.13818C183.716 7.47184 183.195 7.87061 182.593 8.33447C181.999 8.7902 181.344 9.29883 180.628 9.86035C180.026 11.0078 179.44 12.2204 178.87 13.498C178.3 14.7757 177.792 16.0737 177.344 17.3921C176.897 18.7023 176.539 20.0085 176.27 21.3105C176.001 22.6126 175.867 23.8577 175.867 25.0459V25.4243C176.103 25.7091 176.38 25.9045 176.697 26.0103C177.023 26.116 177.385 26.1689 177.784 26.1689C177.938 26.1689 178.093 26.1567 178.248 26.1323C178.402 26.1079 178.569 26.0387 178.748 25.9248L179.053 25.9858C179.59 25.8475 180.115 25.6766 180.628 25.4731C181.149 25.2616 181.653 25.0256 182.142 24.7651C182.638 24.5047 183.126 24.224 183.606 23.9229C184.087 23.6217 184.559 23.3084 185.022 22.9829C185.12 22.9341 185.21 22.9097 185.291 22.9097C185.381 22.9097 185.45 22.9422 185.499 23.0073C185.547 23.0643 185.572 23.1375 185.572 23.2271C185.572 23.341 185.527 23.4712 185.438 23.6177C185.348 23.756 185.21 23.8822 185.022 23.9961C184.29 24.5088 183.562 24.9686 182.837 25.3755C182.121 25.7743 181.344 26.1486 180.506 26.4985C180.612 26.5881 180.673 26.6857 180.689 26.7915C180.705 26.8892 180.713 26.9827 180.713 27.0723C181.958 27.0723 183.143 27.1455 184.266 27.292C185.389 27.4303 186.43 27.6257 187.391 27.8779C188.359 28.1221 189.23 28.4069 190.003 28.7324C190.784 29.0579 191.447 29.4079 191.993 29.7822C192.546 30.1566 192.969 30.5431 193.262 30.9419C193.563 31.3407 193.714 31.7313 193.714 32.1138C193.714 32.6183 193.539 33.0578 193.189 33.4321C192.847 33.8065 192.379 34.1198 191.785 34.3721C191.191 34.6325 190.491 34.8237 189.686 34.9458C188.888 35.076 188.034 35.1411 187.122 35.1411C186.137 35.1411 185.112 35.0638 184.046 34.9092C182.988 34.7627 181.95 34.5348 180.933 34.2256C179.924 33.9163 178.964 33.5298 178.052 33.0659C177.149 32.6102 176.355 32.069 175.672 31.4424C174.988 30.8158 174.443 30.1077 174.036 29.3184C173.637 28.5371 173.438 27.6704 173.438 26.7183V26.4863ZM176.404 27.4507C176.347 27.4507 176.294 27.4507 176.246 27.4507C176.197 27.4507 176.144 27.4466 176.087 27.4385C176.176 28.2686 176.4 29.0132 176.758 29.6724C177.116 30.3397 177.564 30.9256 178.101 31.4302C178.646 31.9429 179.265 32.3783 179.957 32.7363C180.648 33.1025 181.368 33.3996 182.117 33.6274C182.874 33.8634 183.639 34.0343 184.412 34.1401C185.185 34.2541 185.93 34.311 186.646 34.311C187.305 34.311 187.924 34.2663 188.501 34.1768C189.079 34.0954 189.58 33.9733 190.003 33.8105C190.434 33.6559 190.772 33.4647 191.016 33.2368C191.26 33.009 191.382 32.7526 191.382 32.4678C191.382 32.248 191.264 32.012 191.028 31.7598C190.792 31.5156 190.467 31.2633 190.052 31.0029C189.645 30.7425 189.165 30.4821 188.611 30.2217C188.058 29.9694 187.464 29.7253 186.829 29.4893C186.202 29.2533 185.547 29.0335 184.864 28.8301C184.18 28.6266 183.501 28.4476 182.825 28.293C182.158 28.1465 181.507 28.0326 180.872 27.9512C180.245 27.8617 179.672 27.8169 179.151 27.8169C178.638 27.8169 178.215 27.8372 177.881 27.8779C177.556 27.9105 177.356 27.9268 177.283 27.9268C176.811 27.9268 176.575 27.8332 176.575 27.646C176.575 27.5728 176.604 27.5076 176.661 27.4507H176.404ZM159.571 24.936C158.985 25.3755 158.395 25.8149 157.801 26.2544C157.215 26.6938 156.653 27.1252 156.116 27.5483C155.571 27.9634 155.062 28.3662 154.59 28.7568C154.118 29.1556 153.707 29.5259 153.357 29.8677C153.007 30.2176 152.735 30.535 152.54 30.8198C152.336 31.1128 152.234 31.3651 152.234 31.5767C152.234 31.8127 152.373 31.9917 152.649 32.1138C152.918 32.2358 153.37 32.2969 154.004 32.2969C154.444 32.2969 154.83 32.2277 155.164 32.0894C155.498 31.9591 155.807 31.7557 156.092 31.479C156.377 31.2104 156.641 30.8727 156.885 30.4658C157.138 30.0589 157.398 29.5828 157.667 29.0376C157.935 28.4924 158.22 27.8779 158.521 27.1943C158.83 26.5107 159.18 25.758 159.571 24.936ZM185.523 2.3042C185.417 2.36117 185.234 2.55241 184.974 2.87793C184.713 3.19531 184.4 3.62256 184.034 4.15967C183.667 4.68864 183.261 5.31527 182.813 6.03955C182.365 6.7557 181.902 7.54102 181.421 8.39551C182.211 7.79329 182.931 7.22363 183.582 6.68652C184.233 6.14941 184.791 5.64893 185.254 5.18506C185.718 4.72119 186.076 4.30208 186.329 3.92773C186.589 3.54525 186.719 3.21159 186.719 2.92676C186.719 2.47917 186.402 2.16992 185.767 1.99902L185.645 2.14551C185.612 2.1862 185.584 2.22282 185.56 2.25537C185.535 2.27979 185.523 2.29606 185.523 2.3042ZM196.485 18.0757C196.949 18.0757 197.36 18.1693 197.718 18.3564C198.084 18.5436 198.389 18.8 198.633 19.1255C198.886 19.4429 199.077 19.8172 199.207 20.2485C199.337 20.6799 199.402 21.1396 199.402 21.6279C199.402 21.9128 199.37 22.2261 199.305 22.5679C199.24 22.9097 199.146 23.2637 199.024 23.6299C198.902 23.988 198.751 24.346 198.572 24.7041C198.401 25.0622 198.21 25.3918 197.999 25.6929C198.153 25.6115 198.34 25.5098 198.56 25.3877C198.78 25.2656 199.012 25.1354 199.256 24.9971C199.508 24.8506 199.769 24.7 200.037 24.5454C200.314 24.3908 200.582 24.2402 200.843 24.0938L202.735 22.9829C202.792 22.9504 202.869 22.9341 202.967 22.9341C203.154 22.9341 203.248 23.0317 203.248 23.2271C203.248 23.4956 203.077 23.752 202.735 23.9961C202.442 24.1914 202.059 24.4355 201.587 24.7285C201.115 25.0215 200.603 25.3104 200.049 25.5952C199.504 25.8719 198.947 26.1201 198.377 26.3398C197.815 26.5514 197.291 26.6735 196.802 26.7061C196.167 27.1781 195.423 27.5605 194.568 27.8535C193.714 28.1383 192.717 28.2808 191.578 28.2808C191.016 28.2808 190.54 28.2319 190.149 28.1343C189.767 28.0366 189.458 27.8942 189.222 27.707C188.986 27.5199 188.815 27.292 188.709 27.0234C188.603 26.7467 188.55 26.4294 188.55 26.0713C188.55 25.5505 188.656 24.993 188.868 24.3989C189.079 23.8049 189.34 23.2271 189.649 22.6655C189.966 22.0959 190.304 21.5669 190.662 21.0786C191.02 20.5903 191.346 20.1875 191.639 19.8701C191.378 20.098 191.008 20.3706 190.528 20.688C190.056 21.0054 189.519 21.3472 188.917 21.7134C188.322 22.0715 187.688 22.4458 187.012 22.8364C186.345 23.2271 185.682 23.6136 185.022 23.9961C184.925 24.0368 184.835 24.0571 184.754 24.0571C184.648 24.0571 184.567 24.0286 184.51 23.9717C184.453 23.9066 184.424 23.8252 184.424 23.7275C184.424 23.6136 184.473 23.4956 184.571 23.3735C184.66 23.2433 184.811 23.1131 185.022 22.9829C186.259 22.2586 187.313 21.6361 188.184 21.1152C189.055 20.5863 189.808 20.1387 190.442 19.7725C191.077 19.4062 191.631 19.1133 192.103 18.8936C192.575 18.6738 193.026 18.5029 193.458 18.3809C193.897 18.2588 194.353 18.1774 194.825 18.1367C195.297 18.096 195.85 18.0757 196.485 18.0757ZM191.602 27.231C192.115 27.231 192.615 27.1252 193.104 26.9136C193.592 26.702 194.068 26.4131 194.532 26.0469C194.426 25.9248 194.353 25.7865 194.312 25.6318C194.271 25.4772 194.251 25.3185 194.251 25.1558C194.251 24.8709 194.345 24.6593 194.532 24.521C194.719 24.3745 194.943 24.3013 195.203 24.3013C195.48 24.3013 195.748 24.3826 196.009 24.5454C196.269 24.3582 196.517 24.1344 196.753 23.874C196.989 23.6136 197.193 23.3369 197.364 23.0439C197.543 22.751 197.681 22.4499 197.779 22.1406C197.885 21.8314 197.938 21.5303 197.938 21.2373C197.938 20.985 197.889 20.745 197.791 20.5171C197.701 20.2811 197.551 20.0776 197.339 19.9067C197.136 19.7358 196.863 19.6016 196.521 19.5039C196.188 19.3981 195.781 19.3452 195.301 19.3452C194.902 19.3452 194.503 19.451 194.104 19.6626C193.714 19.8742 193.335 20.159 192.969 20.5171C192.611 20.867 192.273 21.2699 191.956 21.7256C191.647 22.1732 191.378 22.637 191.15 23.1172C190.923 23.5973 190.743 24.0693 190.613 24.5332C190.483 24.9971 190.418 25.4202 190.418 25.8027C190.418 26.2259 190.512 26.5718 190.699 26.8403C190.886 27.1007 191.187 27.231 191.602 27.231ZM214.209 18.0757C214.673 18.0757 215.084 18.1693 215.442 18.3564C215.809 18.5436 216.114 18.8 216.358 19.1255C216.61 19.4429 216.801 19.8172 216.932 20.2485C217.062 20.6799 217.127 21.1396 217.127 21.6279C217.127 21.9128 217.094 22.2261 217.029 22.5679C216.964 22.9097 216.871 23.2637 216.749 23.6299C216.626 23.988 216.476 24.346 216.297 24.7041C216.126 25.0622 215.935 25.3918 215.723 25.6929C215.878 25.6115 216.065 25.5098 216.285 25.3877C216.504 25.2656 216.736 25.1354 216.98 24.9971C217.233 24.8506 217.493 24.7 217.762 24.5454C218.038 24.3908 218.307 24.2402 218.567 24.0938L220.459 22.9829C220.516 22.9504 220.594 22.9341 220.691 22.9341C220.879 22.9341 220.972 23.0317 220.972 23.2271C220.972 23.4956 220.801 23.752 220.459 23.9961C220.167 24.1914 219.784 24.4355 219.312 24.7285C218.84 25.0215 218.327 25.3104 217.774 25.5952C217.229 25.8719 216.671 26.1201 216.102 26.3398C215.54 26.5514 215.015 26.6735 214.527 26.7061C213.892 27.1781 213.147 27.5605 212.293 27.8535C211.438 28.1383 210.442 28.2808 209.302 28.2808C208.741 28.2808 208.265 28.2319 207.874 28.1343C207.492 28.0366 207.182 27.8942 206.946 27.707C206.71 27.5199 206.539 27.292 206.434 27.0234C206.328 26.7467 206.275 26.4294 206.275 26.0713C206.275 25.5505 206.381 24.993 206.592 24.3989C206.804 23.8049 207.064 23.2271 207.374 22.6655C207.691 22.0959 208.029 21.5669 208.387 21.0786C208.745 20.5903 209.07 20.1875 209.363 19.8701C209.103 20.098 208.733 20.3706 208.252 20.688C207.78 21.0054 207.243 21.3472 206.641 21.7134C206.047 22.0715 205.412 22.4458 204.737 22.8364C204.069 23.2271 203.406 23.6136 202.747 23.9961C202.649 24.0368 202.56 24.0571 202.479 24.0571C202.373 24.0571 202.291 24.0286 202.234 23.9717C202.177 23.9066 202.149 23.8252 202.149 23.7275C202.149 23.6136 202.198 23.4956 202.295 23.3735C202.385 23.2433 202.535 23.1131 202.747 22.9829C203.984 22.2586 205.038 21.6361 205.909 21.1152C206.779 20.5863 207.532 20.1387 208.167 19.7725C208.802 19.4062 209.355 19.1133 209.827 18.8936C210.299 18.6738 210.751 18.5029 211.182 18.3809C211.622 18.2588 212.077 18.1774 212.549 18.1367C213.021 18.096 213.575 18.0757 214.209 18.0757ZM209.327 27.231C209.839 27.231 210.34 27.1252 210.828 26.9136C211.316 26.702 211.792 26.4131 212.256 26.0469C212.151 25.9248 212.077 25.7865 212.037 25.6318C211.996 25.4772 211.976 25.3185 211.976 25.1558C211.976 24.8709 212.069 24.6593 212.256 24.521C212.444 24.3745 212.667 24.3013 212.928 24.3013C213.204 24.3013 213.473 24.3826 213.733 24.5454C213.994 24.3582 214.242 24.1344 214.478 23.874C214.714 23.6136 214.917 23.3369 215.088 23.0439C215.267 22.751 215.406 22.4499 215.503 22.1406C215.609 21.8314 215.662 21.5303 215.662 21.2373C215.662 20.985 215.613 20.745 215.516 20.5171C215.426 20.2811 215.276 20.0776 215.064 19.9067C214.861 19.7358 214.588 19.6016 214.246 19.5039C213.912 19.3981 213.506 19.3452 213.025 19.3452C212.627 19.3452 212.228 19.451 211.829 19.6626C211.438 19.8742 211.06 20.159 210.694 20.5171C210.336 20.867 209.998 21.2699 209.681 21.7256C209.371 22.1732 209.103 22.637 208.875 23.1172C208.647 23.5973 208.468 24.0693 208.338 24.5332C208.208 24.9971 208.143 25.4202 208.143 25.8027C208.143 26.2259 208.236 26.5718 208.423 26.8403C208.611 27.1007 208.912 27.231 209.327 27.231ZM223.426 25.0215C223.426 24.7204 223.515 24.3582 223.694 23.9351C223.882 23.5119 224.122 23.0806 224.415 22.6411C224.716 22.2017 225.053 21.7826 225.428 21.3838C225.802 20.9769 226.176 20.6473 226.551 20.395L220.472 23.9961C220.439 24.0124 220.411 24.0246 220.386 24.0327C220.354 24.0327 220.325 24.0327 220.301 24.0327C220.211 24.0327 220.142 24.0002 220.093 23.9351C220.044 23.87 220.02 23.7886 220.02 23.6909C220.02 23.577 220.057 23.4549 220.13 23.3247C220.203 23.1864 220.317 23.0724 220.472 22.9829L223.829 20.9443C224.284 20.6676 224.801 20.3747 225.379 20.0654C225.957 19.748 226.555 19.4591 227.173 19.1987C227.8 18.9383 228.431 18.7227 229.065 18.5518C229.7 18.3727 230.302 18.2832 230.872 18.2832C231.401 18.2832 231.869 18.3646 232.276 18.5273L235.462 12.0942C235.543 11.9233 235.629 11.7402 235.718 11.5449C235.816 11.3415 235.938 11.1543 236.084 10.9834C236.239 10.8125 236.43 10.6701 236.658 10.5562C236.894 10.4341 237.195 10.373 237.562 10.373C237.675 10.373 237.745 10.4137 237.769 10.4951C237.802 10.5684 237.818 10.666 237.818 10.7881C237.802 10.902 237.773 11.0322 237.732 11.1787C237.692 11.3171 237.647 11.4554 237.598 11.5938C237.557 11.7321 237.517 11.8582 237.476 11.9722C237.435 12.0861 237.403 12.1715 237.378 12.2285L233.741 20.1387C233.562 20.6676 233.338 21.217 233.069 21.7866C232.809 22.3481 232.553 22.8975 232.3 23.4346C232.056 23.9635 231.845 24.46 231.666 24.9238C231.495 25.3877 231.409 25.7824 231.409 26.1079C231.409 26.2218 231.421 26.3317 231.446 26.4375C231.478 26.5433 231.535 26.5962 231.617 26.5962C231.722 26.5962 231.881 26.5555 232.093 26.4741C232.312 26.3927 232.561 26.2788 232.837 26.1323C233.114 25.9858 233.411 25.8149 233.729 25.6196C234.054 25.4162 234.375 25.2005 234.693 24.9727L237.867 22.9829C237.932 22.9504 237.981 22.9341 238.013 22.9341C238.078 22.9341 238.127 22.9666 238.16 23.0317C238.2 23.0968 238.221 23.1742 238.221 23.2637C238.221 23.402 238.188 23.5404 238.123 23.6787C238.066 23.8089 237.981 23.9147 237.867 23.9961C237.403 24.3053 236.923 24.6268 236.426 24.9604C235.938 25.286 235.446 25.6115 234.949 25.937C234.453 26.2544 233.965 26.5596 233.484 26.8525C233.012 27.1455 232.557 27.4141 232.117 27.6582C231.491 28.0081 230.929 28.1831 230.433 28.1831C230.107 28.1831 229.887 28.0936 229.773 27.9146C229.66 27.7355 229.603 27.5036 229.603 27.2188C229.603 27.0479 229.615 26.8729 229.639 26.6938C229.672 26.5067 229.716 26.3073 229.773 26.0957C229.554 26.4131 229.301 26.6979 229.017 26.9502C228.732 27.2025 228.427 27.4181 228.101 27.5972C227.784 27.7762 227.45 27.9105 227.1 28C226.758 28.0977 226.425 28.1465 226.099 28.1465C225.741 28.1465 225.399 28.0895 225.074 27.9756C224.748 27.8535 224.463 27.6663 224.219 27.4141C223.975 27.1536 223.78 26.8281 223.633 26.4375C223.495 26.0469 223.426 25.5749 223.426 25.0215ZM231.385 20.7734C231.417 20.6839 231.458 20.5741 231.507 20.4438C231.564 20.3136 231.617 20.1875 231.666 20.0654C231.722 19.9434 231.767 19.8335 231.8 19.7358C231.84 19.63 231.861 19.5568 231.861 19.5161C231.861 19.4673 231.767 19.4307 231.58 19.4062C231.393 19.3818 231.145 19.3696 230.835 19.3696C230.429 19.3696 230.014 19.4795 229.59 19.6992C229.175 19.9108 228.768 20.1916 228.37 20.5415C227.979 20.8914 227.609 21.2943 227.259 21.75C226.917 22.1976 226.616 22.6615 226.355 23.1416C226.103 23.6136 225.9 24.0815 225.745 24.5454C225.599 25.0093 225.525 25.4284 225.525 25.8027C225.525 26.3073 225.611 26.6694 225.782 26.8892C225.953 27.1007 226.176 27.2065 226.453 27.2065C226.827 27.2065 227.23 27.0479 227.662 26.7305C228.101 26.4131 228.541 25.9736 228.98 25.4121C229.419 24.8424 229.847 24.1629 230.262 23.3735C230.677 22.5841 231.051 21.7174 231.385 20.7734ZM240.821 28.2075C240.544 28.2075 240.304 28.1546 240.101 28.0488C239.905 27.943 239.743 27.8006 239.612 27.6216C239.482 27.4425 239.384 27.2391 239.319 27.0112C239.262 26.7752 239.234 26.5311 239.234 26.2788C239.234 25.8638 239.303 25.4406 239.441 25.0093C239.58 24.5698 239.779 24.1711 240.04 23.813C240.3 23.4468 240.613 23.1497 240.979 22.9219C241.354 22.6859 241.773 22.5679 242.237 22.5679C242.717 22.5679 243.124 22.6289 243.458 22.751C243.791 22.873 244.06 23.0358 244.263 23.2393C244.467 23.4427 244.613 23.6787 244.703 23.9473C244.792 24.2077 244.837 24.4762 244.837 24.7529C244.837 25.2249 244.715 25.6725 244.471 26.0957C244.227 26.5107 243.909 26.877 243.519 27.1943C243.136 27.5036 242.705 27.7518 242.225 27.939C241.753 28.118 241.285 28.2075 240.821 28.2075Z" fill="white"/>
</svg>
