<svg width="70" height="24" viewBox="0 0 70 24" fill="none" xmlns="http://www.w3.org/2000/svg">
<g id="linkedin black.1">
<path id="LinkedIn" fill-rule="evenodd" clip-rule="evenodd" d="M2.11877 7.77127H2.09337C0.823377 7.77127 0 6.94039 0 5.88717C0 4.81347 0.847719 4 2.14311 4C3.43744 4 4.2333 4.81142 4.2587 5.8841C4.2587 6.93731 3.43744 7.77127 2.11877 7.77127ZM18 20H14.0218V14.3754C14.0218 12.9031 13.3995 11.8981 12.031 11.8981C10.9844 11.8981 10.4023 12.5763 10.1313 13.2299C10.0419 13.4365 10.0435 13.7146 10.0452 14.0012V14.0012C10.0454 14.0401 10.0456 14.0791 10.0456 14.1182V20H6.10442C6.10442 20 6.15522 10.0365 6.10442 9.13082H10.0456V10.8367C10.2785 10.0908 11.5379 9.02632 13.5476 9.02632C16.041 9.02632 18 10.5897 18 13.9563V20ZM3.96237 9.13082H0.454022V20H3.96237V9.13082Z" fill="white"/>
</g>
</svg>
